<svg width="417" height="84" viewBox="0 0 417 84" fill="none" xmlns="http://www.w3.org/2000/svg">
<rect width="84" height="84" rx="8" fill="#8B3DFF"/>
<path d="M67.4399 27.2542C67.7814 27.2981 68.1161 27.3848 68.4346 27.5157L68.8986 27.7438L69.3292 28.0309C69.7393 28.3445 70.0841 28.7373 70.3444 29.187C70.6911 29.7864 70.875 30.4659 70.875 31.1584V52.6736L70.8391 53.2043C70.7675 53.7299 70.5906 54.238 70.3162 54.6962C69.95 55.3072 69.4239 55.8084 68.796 56.1446C68.1685 56.4805 67.4613 56.6398 66.7504 56.606C66.039 56.572 65.3489 56.3443 64.756 55.9497L51.0439 46.8084C49.8379 46.0041 49.5118 44.3744 50.3159 43.1682C51.1201 41.9625 52.75 41.6364 53.9561 42.4402L58.3993 45.4027C61.4878 47.462 65.625 45.248 65.625 41.5359C65.625 37.9486 61.7332 35.7138 58.6349 37.522L53.8228 40.3305C52.5706 41.0608 50.9644 40.6366 50.2339 39.3846C49.5034 38.1324 49.9252 36.5263 51.1772 35.7957L64.9534 27.7566L65.4148 27.5259C65.8912 27.3262 66.4048 27.2226 66.9247 27.2209L67.4399 27.2542Z" fill="white"/>
<path d="M49.875 31.5C49.875 30.0503 48.6997 28.875 47.25 28.875H21C19.5503 28.875 18.375 30.0503 18.375 31.5V52.5C18.375 53.9497 19.5503 55.125 21 55.125H47.25C48.6997 55.125 49.875 53.9497 49.875 52.5V31.5ZM55.125 52.5C55.125 56.8492 51.5992 60.375 47.25 60.375H21C16.6508 60.375 13.125 56.8492 13.125 52.5V31.5C13.125 27.1508 16.6508 23.625 21 23.625H47.25C51.5992 23.625 55.125 27.1508 55.125 31.5V52.5Z" fill="white"/>
<path d="M21.769 32.269C22.7942 31.2439 24.4558 31.2439 25.481 32.269L30.731 37.519C31.7561 38.5442 31.7561 40.2058 30.731 41.231L25.481 46.481C24.4558 47.5061 22.7942 47.5061 21.769 46.481C20.7439 45.4558 20.7439 43.7942 21.769 42.769C23.6435 40.8946 23.6435 37.8554 21.769 35.981C20.7439 34.9558 20.7439 33.2942 21.769 32.269Z" fill="white"/>
<path d="M42 44.625C43.4497 44.625 44.625 45.8003 44.625 47.25C44.625 48.6997 43.4497 49.875 42 49.875H31.5C30.0503 49.875 28.875 48.6997 28.875 47.25C28.875 45.8003 30.0503 44.625 31.5 44.625H42Z" fill="white"/>
<path d="M104.2 58.8V52.92H118.96C119.68 52.92 120.3 52.76 120.82 52.44C121.38 52.12 121.8 51.7 122.08 51.18C122.4 50.66 122.56 50.12 122.56 49.56C122.56 48.92 122.42 48.36 122.14 47.88C121.86 47.4 121.46 47.02 120.94 46.74C120.42 46.42 119.82 46.26 119.14 46.26H113.14C111.18 46.26 109.44 45.94 107.92 45.3C106.4 44.66 105.2 43.68 104.32 42.36C103.44 41 103 39.3 103 37.26C103 35.62 103.4 34.12 104.2 32.76C105.04 31.4 106.16 30.3 107.56 29.46C108.96 28.62 110.54 28.2 112.3 28.2H126.52V34.08H112.96C112.04 34.08 111.28 34.38 110.68 34.98C110.08 35.54 109.78 36.24 109.78 37.08C109.78 37.88 110.08 38.58 110.68 39.18C111.28 39.78 112.08 40.08 113.08 40.08H118.9C121.1 40.08 122.98 40.42 124.54 41.1C126.1 41.78 127.28 42.8 128.08 44.16C128.92 45.52 129.34 47.24 129.34 49.32C129.34 51 128.92 52.58 128.08 54.06C127.24 55.5 126.08 56.66 124.6 57.54C123.16 58.38 121.52 58.8 119.68 58.8H104.2Z" fill="#8B3DFF"/>
<path d="M136.195 58.8V15H143.095V40.44H149.695L157.375 28.2H164.995L156.415 41.52C159.175 42.48 161.315 44.1 162.835 46.38C164.355 48.62 165.115 51.2 165.115 54.12V58.8H158.215V54.12C158.215 52.68 157.875 51.38 157.195 50.22C156.515 49.02 155.595 48.08 154.435 47.4C153.275 46.72 151.955 46.38 150.475 46.38H143.095V58.8H136.195Z" fill="#8B3DFF"/>
<path d="M172.289 58.8V28.2H179.189V58.8H172.289ZM175.709 23.94C174.509 23.94 173.469 23.5 172.589 22.62C171.709 21.74 171.269 20.7 171.269 19.5C171.269 18.3 171.709 17.26 172.589 16.38C173.469 15.5 174.509 15.06 175.709 15.06C176.949 15.06 177.989 15.5 178.829 16.38C179.709 17.26 180.149 18.3 180.149 19.5C180.149 20.7 179.709 21.74 178.829 22.62C177.989 23.5 176.949 23.94 175.709 23.94Z" fill="#8B3DFF"/>
<path d="M187.465 58.8V15H194.365V58.8H187.465Z" fill="#8B3DFF"/>
<path d="M202.64 58.8V15H209.54V58.8H202.64Z" fill="#8B3DFF"/>
<path d="M217.696 58.8V52.92H232.456C233.176 52.92 233.796 52.76 234.316 52.44C234.876 52.12 235.296 51.7 235.576 51.18C235.896 50.66 236.056 50.12 236.056 49.56C236.056 48.92 235.916 48.36 235.636 47.88C235.356 47.4 234.956 47.02 234.436 46.74C233.916 46.42 233.316 46.26 232.636 46.26H226.636C224.676 46.26 222.936 45.94 221.416 45.3C219.896 44.66 218.696 43.68 217.816 42.36C216.936 41 216.496 39.3 216.496 37.26C216.496 35.62 216.896 34.12 217.696 32.76C218.536 31.4 219.656 30.3 221.056 29.46C222.456 28.62 224.036 28.2 225.796 28.2H240.016V34.08H226.456C225.536 34.08 224.776 34.38 224.176 34.98C223.576 35.54 223.276 36.24 223.276 37.08C223.276 37.88 223.576 38.58 224.176 39.18C224.776 39.78 225.576 40.08 226.576 40.08H232.396C234.596 40.08 236.476 40.42 238.036 41.1C239.596 41.78 240.776 42.8 241.576 44.16C242.416 45.52 242.836 47.24 242.836 49.32C242.836 51 242.416 52.58 241.576 54.06C240.736 55.5 239.576 56.66 238.096 57.54C236.656 58.38 235.016 58.8 233.176 58.8H217.696Z" fill="#8B3DFF"/>
<path d="M252.691 59.46C251.371 59.46 250.231 59 249.271 58.08C248.351 57.12 247.891 55.98 247.891 54.66C247.891 53.38 248.351 52.28 249.271 51.36C250.231 50.4 251.371 49.92 252.691 49.92C253.971 49.92 255.071 50.4 255.991 51.36C256.951 52.28 257.431 53.38 257.431 54.66C257.431 55.54 257.211 56.36 256.771 57.12C256.371 57.84 255.811 58.4 255.091 58.8C254.371 59.24 253.571 59.46 252.691 59.46Z" fill="#8B3DFF"/>
<path d="M277.069 59.52C275.469 59.52 274.029 59.08 272.749 58.2C271.509 57.32 270.609 56.14 270.049 54.66L260.689 28.2H268.189L276.169 51.96C276.289 52.24 276.429 52.44 276.589 52.56C276.749 52.68 276.929 52.74 277.129 52.74C277.329 52.74 277.509 52.68 277.669 52.56C277.869 52.44 278.009 52.24 278.089 51.96L286.129 28.2H293.509L284.089 54.66C283.569 56.14 282.669 57.32 281.389 58.2C280.109 59.08 278.669 59.52 277.069 59.52Z" fill="#8B3DFF"/>
<path d="M298.558 58.8V28.2H305.458V58.8H298.558ZM301.978 23.94C300.778 23.94 299.738 23.5 298.858 22.62C297.978 21.74 297.538 20.7 297.538 19.5C297.538 18.3 297.978 17.26 298.858 16.38C299.738 15.5 300.778 15.06 301.978 15.06C303.218 15.06 304.258 15.5 305.098 16.38C305.978 17.26 306.418 18.3 306.418 19.5C306.418 20.7 305.978 21.74 305.098 22.62C304.258 23.5 303.218 23.94 301.978 23.94Z" fill="#8B3DFF"/>
<path d="M327.954 59.52C325.514 59.52 323.294 59.14 321.294 58.38C319.334 57.58 317.654 56.44 316.254 54.96C314.894 53.48 313.834 51.74 313.074 49.74C312.354 47.7 311.994 45.46 311.994 43.02C311.994 39.9 312.614 37.18 313.854 34.86C315.134 32.54 316.894 30.74 319.134 29.46C321.374 28.14 323.934 27.48 326.814 27.48C328.254 27.48 329.614 27.7 330.894 28.14C332.174 28.58 333.334 29.2 334.374 30C335.414 30.8 336.254 31.74 336.894 32.82H336.954V15H343.854V43.14C343.854 46.5 343.174 49.42 341.814 51.9C340.494 54.34 338.634 56.22 336.234 57.54C333.874 58.86 331.114 59.52 327.954 59.52ZM327.954 53.64C329.714 53.64 331.254 53.22 332.574 52.38C333.934 51.5 334.994 50.3 335.754 48.78C336.514 47.26 336.894 45.5 336.894 43.5C336.894 41.5 336.514 39.74 335.754 38.22C334.994 36.7 333.934 35.52 332.574 34.68C331.254 33.8 329.694 33.36 327.894 33.36C326.174 33.36 324.634 33.8 323.274 34.68C321.914 35.56 320.854 36.76 320.094 38.28C319.334 39.8 318.954 41.54 318.954 43.5C318.954 45.5 319.334 47.26 320.094 48.78C320.854 50.3 321.914 51.5 323.274 52.38C324.674 53.22 326.234 53.64 327.954 53.64Z" fill="#8B3DFF"/>
<path d="M367.359 58.8C363.919 58.8 360.899 58.16 358.299 56.88C355.739 55.56 353.739 53.76 352.299 51.48C350.859 49.16 350.139 46.5 350.139 43.5C350.139 40.34 350.779 37.56 352.059 35.16C353.339 32.76 355.099 30.88 357.339 29.52C359.579 28.16 362.159 27.48 365.079 27.48C368.359 27.48 371.059 28.18 373.179 29.58C375.299 30.98 376.859 32.86 377.859 35.22C378.899 37.58 379.419 40.22 379.419 43.14C379.419 43.54 379.399 44 379.359 44.52C379.319 45.04 379.259 45.44 379.179 45.72H357.459C357.699 47.32 358.279 48.66 359.199 49.74C360.119 50.78 361.279 51.58 362.679 52.14C364.079 52.66 365.639 52.92 367.359 52.92H375.579V58.8H367.359ZM357.399 41.04H372.519C372.479 40.28 372.359 39.52 372.159 38.76C371.999 38 371.719 37.28 371.319 36.6C370.959 35.92 370.479 35.34 369.879 34.86C369.319 34.34 368.639 33.94 367.839 33.66C367.039 33.34 366.119 33.18 365.079 33.18C363.879 33.18 362.819 33.42 361.899 33.9C360.979 34.34 360.199 34.94 359.559 35.7C358.919 36.42 358.419 37.26 358.059 38.22C357.739 39.14 357.519 40.08 357.399 41.04Z" fill="#8B3DFF"/>
<path d="M400.443 59.52C397.283 59.52 394.483 58.82 392.043 57.42C389.603 55.98 387.663 54.06 386.223 51.66C384.823 49.22 384.123 46.5 384.123 43.5C384.123 40.5 384.823 37.8 386.223 35.4C387.663 32.96 389.603 31.04 392.043 29.64C394.483 28.2 397.283 27.48 400.443 27.48C403.563 27.48 406.343 28.2 408.783 29.64C411.223 31.04 413.143 32.94 414.543 35.34C415.983 37.74 416.703 40.46 416.703 43.5C416.703 46.5 415.983 49.22 414.543 51.66C413.143 54.06 411.223 55.98 408.783 57.42C406.343 58.82 403.563 59.52 400.443 59.52ZM400.443 53.64C402.323 53.64 403.963 53.2 405.363 52.32C406.763 51.4 407.843 50.18 408.603 48.66C409.363 47.14 409.743 45.42 409.743 43.5C409.743 41.62 409.363 39.92 408.603 38.4C407.843 36.84 406.763 35.62 405.363 34.74C403.963 33.82 402.323 33.36 400.443 33.36C398.523 33.36 396.863 33.82 395.463 34.74C394.103 35.62 393.023 36.82 392.223 38.34C391.463 39.86 391.083 41.58 391.083 43.5C391.083 45.38 391.463 47.1 392.223 48.66C393.023 50.18 394.103 51.4 395.463 52.32C396.863 53.2 398.523 53.64 400.443 53.64Z" fill="#8B3DFF"/>
</svg>
